<svg width="20" height="20" viewBox="0 0 20 20" fill="none" xmlns="http://www.w3.org/2000/svg">
<g clip-path="url(#clip0_53_830)">
<path d="M3.58228 18.5625C3.48478 19.1175 4.03228 19.5513 4.51478 19.3038L10.0023 16.4838L15.4885 19.3038C15.971 19.5513 16.5185 19.1175 16.421 18.5638L15.3835 12.6513L19.786 8.45627C20.1985 8.06378 19.986 7.34628 19.4335 7.26878L13.311 6.39878L10.581 0.990026C10.529 0.880387 10.447 0.787755 10.3444 0.722891C10.2419 0.658028 10.123 0.623596 10.0017 0.623596C9.88031 0.623596 9.76145 0.658028 9.65889 0.722891C9.55634 0.787755 9.47429 0.880387 9.42228 0.990026L6.69228 6.40003L0.569782 7.27003C0.0185316 7.34753 -0.195218 8.06503 0.216032 8.45753L4.61978 12.6525L3.58228 18.565V18.5625ZM9.71353 15.1038L5.10603 17.4713L5.97353 12.525C5.99441 12.4112 5.98673 12.2939 5.95117 12.1837C5.91562 12.0736 5.85329 11.9739 5.76978 11.8938L2.13728 8.43128L7.20228 7.71128C7.30699 7.69493 7.40625 7.65371 7.49173 7.59107C7.57721 7.52843 7.64641 7.4462 7.69353 7.35128L9.99978 2.77878L12.3085 7.35128C12.3557 7.4462 12.4249 7.52843 12.5103 7.59107C12.5958 7.65371 12.6951 7.69493 12.7998 7.71128L17.8648 8.43003L14.2323 11.8925C14.1486 11.9728 14.0861 12.0727 14.0506 12.1831C14.015 12.2935 14.0074 12.411 14.0285 12.525L14.896 17.4713L10.2885 15.1038C10.1995 15.0575 10.1007 15.0334 10.0004 15.0334C9.90011 15.0334 9.80254 15.0575 9.71353 15.1038Z" fill="#FFE500"/>
</g>
<defs>
<clipPath id="clip0_53_830">
<rect width="20" height="20" fill="white"/>
</clipPath>
</defs>
</svg>
