<svg width="167" height="167" viewBox="0 0 167 167" fill="none" xmlns="http://www.w3.org/2000/svg">
<path d="M80.1811 111.842C85.0032 111.842 87.2398 108.487 87.2398 104.014V101.637C87.38 92.4106 90.7349 88.5667 101.918 80.8817C113.87 72.7702 121.487 63.4063 121.487 49.9151C121.487 28.9477 104.435 16.9266 83.2557 16.9266C67.4593 16.9266 53.5505 24.4058 47.6101 37.8941C46.1429 41.1804 45.5137 44.3952 45.5137 47.0493C45.5137 51.0334 47.8189 53.8307 52.0833 53.8307C55.647 53.8307 58.0238 51.7342 59.0735 48.3077C62.7057 35.0282 71.4434 29.9974 82.7666 29.9974C96.395 29.9974 107.02 37.6853 107.02 49.8465C107.02 59.8397 100.8 65.4312 91.8532 71.7235C80.8789 79.3429 72.842 87.5199 72.842 99.8213V104.223C72.842 108.696 75.2904 111.842 80.1811 111.842ZM80.1781 150.073C85.698 150.073 90.1027 145.6 90.1027 140.149C90.1098 138.843 89.8579 137.55 89.3617 136.342C88.8655 135.135 88.1347 134.038 87.2117 133.115C86.2887 132.192 85.1918 131.461 83.9845 130.965C82.7772 130.469 81.4834 130.217 80.1781 130.224C74.7267 130.224 70.182 134.629 70.182 140.149C70.182 145.6 74.7267 150.073 80.1781 150.073Z" fill="white"/>
</svg>
