<svg width="121" height="121" viewBox="0 0 121 121" fill="none" xmlns="http://www.w3.org/2000/svg">
<g clip-path="url(#clip0_77_1845)">
<path opacity="0.1" fill-rule="evenodd" clip-rule="evenodd" d="M60.5 22.6875C50.4715 22.6875 40.8537 26.6713 33.7625 33.7625C26.6713 40.8537 22.6875 50.4715 22.6875 60.5C22.6875 70.5285 26.6713 80.1463 33.7625 87.2375C40.8537 94.3287 50.4715 98.3125 60.5 98.3125C70.5285 98.3125 80.1463 94.3287 87.2375 87.2375C94.3287 80.1463 98.3125 70.5285 98.3125 60.5C98.3125 50.4715 94.3287 40.8537 87.2375 33.7625C80.1463 26.6713 70.5285 22.6875 60.5 22.6875ZM7.5625 60.5C7.5625 31.2634 31.2634 7.5625 60.5 7.5625C89.7366 7.5625 113.438 31.2634 113.438 60.5C113.438 89.7366 89.7366 113.438 60.5 113.438C31.2634 113.438 7.5625 89.7366 7.5625 60.5Z" fill="white"/>
<path fill-rule="evenodd" clip-rule="evenodd" d="M60.5 22.6875C50.7512 22.6656 41.3749 26.4309 34.3489 33.1893C32.8933 34.5352 30.9673 35.2557 28.9857 35.1956C27.0041 35.1355 25.1253 34.2997 23.7539 32.8681C22.3824 31.4365 21.628 29.5236 21.6529 27.5413C21.6779 25.5589 22.4804 23.6656 23.8875 22.269C33.7284 12.8132 46.8525 7.54151 60.5 7.5625C62.5058 7.5625 64.4293 8.35926 65.8475 9.77751C67.2658 11.1958 68.0626 13.1193 68.0626 15.125C68.0626 17.1307 67.2658 19.0543 65.8475 20.4725C64.4293 21.8907 62.5058 22.6875 60.5 22.6875Z" fill="white"/>
</g>
<defs>
<clipPath id="clip0_77_1845">
<rect width="121" height="121" fill="white"/>
</clipPath>
</defs>
</svg>
