<svg width="24" height="24" viewBox="0 0 24 24" fill="none" xmlns="http://www.w3.org/2000/svg">
<path fill-rule="evenodd" clip-rule="evenodd" d="M12.0002 21.1885L12.7214 20.376C13.5396 19.4388 14.2756 18.5497 14.9305 17.704L15.4711 16.9908C17.7282 13.9497 18.8574 11.536 18.8574 9.75197C18.8574 5.94397 15.7876 2.85712 12.0002 2.85712C8.21278 2.85712 5.14307 5.94397 5.14307 9.75197C5.14307 11.536 6.27221 13.9497 8.52935 16.9908L9.06992 17.704C10.0041 18.901 10.9815 20.0625 12.0002 21.1885Z" stroke="white" stroke-linecap="round" stroke-linejoin="round"/>
<path d="M12.0002 12.5714C13.5782 12.5714 14.8574 11.2922 14.8574 9.71426C14.8574 8.1363 13.5782 6.85712 12.0002 6.85712C10.4223 6.85712 9.14307 8.1363 9.14307 9.71426C9.14307 11.2922 10.4223 12.5714 12.0002 12.5714Z" stroke="white" stroke-linecap="round" stroke-linejoin="round"/>
</svg>
