<svg width="20" height="20" viewBox="0 0 20 20" fill="none" xmlns="http://www.w3.org/2000/svg">
<g clip-path="url(#clip0_83_2118)">
<path d="M3.58228 18.5625C3.48478 19.1175 4.03228 19.5512 4.51478 19.3037L10.0023 16.4837L15.4885 19.3037C15.971 19.5512 16.5185 19.1175 16.421 18.5637L15.3835 12.6512L19.786 8.45621C20.1985 8.06371 19.986 7.34621 19.4335 7.26871L13.311 6.39871L10.581 0.989965C10.529 0.880326 10.447 0.787694 10.3444 0.72283C10.2419 0.657967 10.123 0.623535 10.0017 0.623535C9.88031 0.623535 9.76145 0.657967 9.65889 0.72283C9.55634 0.787694 9.47429 0.880326 9.42228 0.989965L6.69228 6.39996L0.569782 7.26996C0.0185316 7.34746 -0.195218 8.06496 0.216032 8.45746L4.61978 12.6525L3.58228 18.565V18.5625ZM9.71353 15.1037L5.10603 17.4712L5.97353 12.525C5.99441 12.4111 5.98673 12.2938 5.95117 12.1837C5.91562 12.0735 5.85329 11.9739 5.76978 11.8937L2.13728 8.43121L7.20228 7.71121C7.30699 7.69487 7.40625 7.65365 7.49173 7.59101C7.57721 7.52837 7.64641 7.44614 7.69353 7.35121L9.99978 2.77871L12.3085 7.35121C12.3557 7.44614 12.4249 7.52837 12.5103 7.59101C12.5958 7.65365 12.6951 7.69487 12.7998 7.71121L17.8648 8.42996L14.2323 11.8925C14.1486 11.9728 14.0861 12.0726 14.0506 12.183C14.015 12.2934 14.0074 12.4109 14.0285 12.525L14.896 17.4712L10.2885 15.1037C10.1995 15.0575 10.1007 15.0333 10.0004 15.0333C9.90011 15.0333 9.80254 15.0575 9.71353 15.1037Z" fill="#FFE500"/>
</g>
<defs>
<clipPath id="clip0_83_2118">
<rect width="20" height="20" fill="white"/>
</clipPath>
</defs>
</svg>
